<svg width="268" height="98" viewBox="0 0 268 98" fill="none" xmlns="http://www.w3.org/2000/svg">
<path d="M23.4074 97.3505C19.5079 97.3879 15.4483 96.9558 11.4635 95.9689C8.62018 95.2647 5.85691 94.2992 3.16299 93.1416C2.49618 92.8536 1.88271 92.4748 1.38127 91.9147C0.479741 90.9065 0.469073 89.7756 0.965181 88.6393C1.5093 87.4017 2.32548 86.3028 3.02963 85.1505C6.24633 79.8801 8.8869 74.3375 10.9994 68.5336C12.461 64.5114 13.7573 60.4305 15.267 56.4243C16.8566 52.1994 18.8464 48.1825 21.5457 44.5604C25.4718 39.2899 30.4116 35.3477 36.7543 33.342C39.2882 32.5418 41.8967 32.1417 44.5587 32.0883C48.1008 32.0137 51.5468 32.5098 54.8862 33.7154C58.5937 35.0543 61.7464 37.2361 64.4297 40.1061C67.8064 43.7229 70.0789 47.9425 71.3058 52.7382C71.978 55.3627 72.2767 58.03 72.1647 60.7346C71.9513 65.9144 70.5003 70.7367 67.9291 75.2231C66.2007 78.237 64.0829 80.947 61.581 83.3475C58.7111 86.1001 55.5104 88.4046 52.0323 90.3303C47.6473 92.7575 43.001 94.5019 38.1359 95.6808C35.3193 96.3636 32.46 96.8224 29.5741 97.0891C27.595 97.2652 25.6052 97.3559 23.4074 97.3505ZM23.6741 90.9011C23.9088 90.8905 24.1489 90.8691 24.3836 90.8638C28.7686 90.8265 33.1002 90.293 37.3464 89.1941C43.1557 87.6898 48.5702 85.3213 53.4246 81.7418C57.9002 78.4398 61.4583 74.3855 63.6828 69.2378C65.3152 65.4556 66.0247 61.5081 65.5872 57.3952C65.2138 53.8477 64.0402 50.5617 62.0878 47.5744C60.2207 44.7098 57.8576 42.3626 54.8222 40.7516C52.5764 39.5566 50.1545 38.9432 47.6313 38.6764C45.2468 38.4257 42.889 38.5538 40.5418 39.0339C36.3969 39.8874 32.9295 41.9838 29.8781 44.8431C27.2162 47.3397 25.2691 50.343 23.5994 53.5543C22.1271 56.387 21.0335 59.3743 20.0147 62.3883C18.665 66.3891 17.2621 70.3687 15.7257 74.3002C13.8853 79.0105 11.5702 83.4809 8.98292 87.8125C8.67886 88.3246 8.67886 88.3406 9.15363 88.5059C13.8426 90.1916 18.7024 90.9118 23.6741 90.9011Z" fill="#FB9426"/>
<path d="M69.9032 19.1688C69.7378 23.5324 68.7243 27.688 66.8092 31.6142C66.4891 32.2703 66.1424 32.9104 65.7903 33.5452C65.5129 34.0574 65.2889 34.0574 64.9635 33.5773C63.2458 31.0274 62.1522 28.2214 61.5121 25.2234C61.0213 22.9296 60.7225 20.6251 60.8239 18.2779C60.9359 15.8027 61.4534 13.3915 61.9815 10.9803C62.755 7.44891 63.7365 3.97615 64.8248 0.530072C64.8941 0.316692 64.9528 0.0659707 65.2249 0.0606362C65.4862 0.0553017 65.5396 0.290019 65.6036 0.49273C67.156 5.24043 68.5322 10.0361 69.4604 14.9545C69.7272 16.3468 69.9085 17.7498 69.9032 19.1688Z" fill="#73AD3B"/>
<path d="M81.8188 30.8324C85.5636 30.8537 88.5349 31.3018 91.4689 32.0433C91.6876 32.0967 91.917 32.1554 91.965 32.4221C92.013 32.6941 91.8103 32.8275 91.6129 32.9342C87.3987 35.3454 82.9977 37.2338 78.1167 37.7619C74.7666 38.1247 71.5072 37.7299 68.3706 36.4443C67.8051 36.2149 67.7624 35.9962 68.2052 35.5908C70.2216 33.7344 72.6328 32.6248 75.2307 31.8673C77.6152 31.1738 80.0424 30.8057 81.8188 30.8324Z" fill="#73AD3B"/>
<path d="M61.491 60.1669C61.5337 62.4021 60.9096 64.6052 59.9707 66.7337C58.5731 69.8917 56.7007 72.7456 54.2041 75.1408C51.5796 77.6694 48.6029 79.7392 45.4289 81.5209C45.1675 81.6649 44.9061 81.8089 44.65 81.953C44.33 82.1343 44.0046 82.2464 43.7485 81.8676C43.5618 81.5902 43.7272 81.2915 44.1966 81.0461C45.1728 80.534 46.1224 79.9845 47.0506 79.3924C49.4404 77.8508 51.7716 76.2131 53.756 74.17C56.802 71.0386 59.0425 67.4111 60.1254 63.1382C60.7229 60.7964 60.5202 58.4439 60.0614 56.1074C59.9387 55.4779 60.0347 55.1578 60.3815 55.0991C60.7122 55.0405 60.9256 55.2912 61.0483 55.8886C61.3257 57.2543 61.4964 58.6412 61.491 60.1669Z" fill="#FB9426"/>
<path d="M88.1032 84.1299C88.8447 84.8394 89.2554 85.6449 89.3408 86.5465H87.9378C87.7778 85.8636 87.463 85.3195 86.9883 84.9194C86.5135 84.5193 85.8467 84.3166 84.9878 84.3166C83.9423 84.3166 83.0941 84.6847 82.4539 85.4209C81.8085 86.157 81.4884 87.2826 81.4884 88.8029C81.4884 90.0459 81.7765 91.0541 82.3579 91.8276C82.9394 92.6011 83.8036 92.9905 84.9558 92.9905C86.0174 92.9905 86.8229 92.5851 87.3777 91.7689C87.6711 91.3422 87.8898 90.7767 88.0338 90.0779H89.4368C89.3088 91.1981 88.898 92.137 88.1939 92.8892C87.351 93.8014 86.2094 94.2548 84.7798 94.2548C83.5475 94.2548 82.5073 93.8814 81.6698 93.1346C80.5655 92.1477 80.0107 90.622 80.0107 88.5576C80.0107 86.9892 80.4268 85.7036 81.2537 84.7007C82.1499 83.6125 83.3875 83.0684 84.9665 83.0684C86.3161 83.0684 87.3617 83.4204 88.1032 84.1299Z" fill="#73AD3B"/>
<path d="M95.6893 83.3584H97.3163L101.173 93.9847H99.5942L98.5166 90.8H94.313L93.1608 93.9847H91.6831L95.6893 83.3584ZM98.0525 89.6318L96.4415 84.9374L94.7291 89.6318H98.0525Z" fill="#73AD3B"/>
<path d="M103.89 83.3584H105.591L110.958 91.9683V83.3584H112.323V93.9847H110.712L105.266 85.3855V93.9847H103.89V83.3584Z" fill="#73AD3B"/>
<path d="M115.993 83.3584H117.695L123.061 91.9683V83.3584H124.427V93.9847H122.816L117.369 85.3855V93.9847H115.993V83.3584Z" fill="#73AD3B"/>
<path d="M131.185 83.3584H132.812L136.669 93.9847H135.09L134.013 90.8H129.814L128.662 93.9847H127.185L131.185 83.3584ZM133.554 89.6318L131.943 84.9374L130.231 89.6318H133.554Z" fill="#73AD3B"/>
<path d="M139.348 83.3584H143.914C145.157 83.3584 146.042 83.7318 146.571 84.4733C146.88 84.9107 147.035 85.4175 147.035 85.9936C147.035 86.6658 146.843 87.2152 146.464 87.642C146.267 87.866 145.984 88.0741 145.61 88.2661C146.154 88.4742 146.565 88.7089 146.832 88.9703C147.307 89.4344 147.547 90.0745 147.547 90.8854C147.547 91.5682 147.333 92.1923 146.901 92.7418C146.261 93.5686 145.242 93.9847 143.839 93.9847H139.348V83.3584ZM143.381 87.85C143.989 87.85 144.458 87.7647 144.8 87.5993C145.328 87.3326 145.594 86.8578 145.594 86.1697C145.594 85.4762 145.312 85.0068 144.746 84.7667C144.426 84.6333 143.957 84.564 143.327 84.564H140.761V87.8554H143.381V87.85ZM143.866 92.7524C144.746 92.7524 145.376 92.4964 145.754 91.9843C145.989 91.6589 146.106 91.2695 146.106 90.8107C146.106 90.0372 145.76 89.5144 145.072 89.2317C144.703 89.0823 144.218 89.0076 143.615 89.0076H140.756V92.7471H143.866V92.7524Z" fill="#73AD3B"/>
<path d="M150.998 83.3584H152.454V93.9847H150.998V83.3584Z" fill="#73AD3B"/>
<path d="M157.138 90.5552C157.17 91.158 157.314 91.6488 157.564 92.0222C158.039 92.7263 158.882 93.0784 160.088 93.0784C160.626 93.0784 161.117 93.0037 161.565 92.849C162.424 92.5503 162.851 92.0169 162.851 91.2434C162.851 90.6672 162.67 90.2511 162.307 90.0058C161.939 89.7657 161.368 89.5523 160.584 89.3763L159.143 89.0509C158.205 88.8375 157.538 88.6028 157.148 88.3467C156.471 87.904 156.135 87.2425 156.135 86.357C156.135 85.4021 156.466 84.6179 157.127 84.0044C157.788 83.391 158.722 83.0869 159.933 83.0869C161.048 83.0869 161.992 83.3536 162.771 83.8924C163.55 84.4312 163.939 85.2901 163.939 86.469H162.584C162.509 85.8982 162.36 85.4661 162.12 85.162C161.683 84.6072 160.936 84.3299 159.885 84.3299C159.037 84.3299 158.429 84.5059 158.055 84.8633C157.682 85.2207 157.5 85.6368 157.5 86.1062C157.5 86.629 157.719 87.0078 158.151 87.2478C158.434 87.4025 159.079 87.5946 160.082 87.8239L161.571 88.1653C162.291 88.3307 162.846 88.5548 163.235 88.8375C163.912 89.3336 164.249 90.0538 164.249 90.998C164.249 92.1769 163.822 93.0144 162.963 93.5212C162.109 94.028 161.112 94.2787 159.981 94.2787C158.658 94.2787 157.623 93.9426 156.876 93.2651C156.129 92.593 155.761 91.6861 155.777 90.5392H157.138V90.5552Z" fill="#73AD3B"/>
<path d="M180.615 84.1299C181.356 84.8394 181.767 85.6449 181.852 86.5465H180.45C180.289 85.8636 179.975 85.3195 179.5 84.9194C179.025 84.5193 178.358 84.3166 177.5 84.3166C176.454 84.3166 175.606 84.6847 174.966 85.4209C174.32 86.157 174 87.2826 174 88.8029C174 90.0459 174.288 91.0541 174.87 91.8276C175.451 92.6011 176.315 92.9905 177.468 92.9905C178.529 92.9905 179.335 92.5851 179.889 91.7689C180.183 91.3422 180.402 90.7767 180.546 90.0779H181.949C181.82 91.1981 181.41 92.137 180.706 92.8892C179.863 93.8014 178.721 94.2548 177.291 94.2548C176.059 94.2548 175.019 93.8814 174.181 93.1346C173.077 92.1477 172.522 90.622 172.522 88.5576C172.522 86.9892 172.939 85.7036 173.765 84.7007C174.662 83.6125 175.899 83.0684 177.478 83.0684C178.828 83.0684 179.873 83.4204 180.615 84.1299Z" fill="#73AD3B"/>
<path d="M193.865 84.8768C194.57 85.8156 194.922 87.0212 194.922 88.4882C194.922 90.0726 194.522 91.3955 193.716 92.4464C192.772 93.6787 191.422 94.2975 189.672 94.2975C188.04 94.2975 186.754 93.7587 185.816 92.6758C184.983 91.6356 184.562 90.3179 184.562 88.7283C184.562 87.2933 184.919 86.061 185.634 85.0368C186.552 83.7245 187.907 83.0684 189.699 83.0684C191.572 83.0684 192.964 83.6712 193.865 84.8768ZM192.596 91.6409C193.161 90.734 193.444 89.6885 193.444 88.5042C193.444 87.2559 193.119 86.2477 192.462 85.4902C191.812 84.7274 190.915 84.3486 189.784 84.3486C188.686 84.3486 187.789 84.7274 187.096 85.4796C186.402 86.2317 186.056 87.3466 186.056 88.8189C186.056 89.9979 186.354 90.9901 186.947 91.7956C187.544 92.6011 188.51 93.0065 189.843 93.0065C191.107 93.0065 192.025 92.5531 192.596 91.6409Z" fill="#73AD3B"/>
<path d="M119.298 45.7553C120.648 46.2887 121.87 47.2222 122.974 48.5559C123.859 49.6494 124.457 50.9937 124.766 52.5834C124.958 53.6396 125.054 55.1813 125.054 57.2191L124.996 76.9887H116.567V57.011C116.567 55.8214 116.375 54.8452 115.986 54.0771C115.25 52.6207 113.895 51.8899 111.921 51.8899C109.638 51.8899 108.064 52.8288 107.189 54.7119C106.746 55.7094 106.522 56.9097 106.522 58.3126V76.994H98.3445V58.3287C98.3445 56.4669 98.1525 55.1173 97.7684 54.2744C97.0802 52.7594 95.7306 52.0019 93.7195 52.0019C91.383 52.0019 89.8146 52.7594 89.0145 54.2744C88.577 55.1386 88.353 56.4242 88.353 58.1313V76.9994H80.0205V45.6752H87.9902V50.2469C89.0038 48.6252 89.9587 47.473 90.8549 46.7848C92.4392 45.5632 94.493 44.9551 97.0162 44.9551C99.4007 44.9551 101.332 45.4779 102.804 46.5288C103.988 47.4996 104.885 48.7532 105.498 50.2789C106.576 48.4492 107.92 47.0995 109.52 46.2407C111.217 45.3818 113.105 44.9551 115.191 44.9551C116.578 44.9551 117.943 45.2218 119.298 45.7553Z" fill="#FB9426"/>
<path d="M144.954 57.9306C146.479 57.7386 147.567 57.4985 148.224 57.2105C149.403 56.709 149.989 55.9355 149.989 54.8739C149.989 53.5883 149.536 52.6975 148.634 52.2067C147.733 51.7159 146.405 51.4705 144.66 51.4705C142.697 51.4705 141.31 51.9506 140.494 52.9002C139.912 53.6043 139.523 54.5592 139.331 55.7648H131.415C131.585 53.0335 132.359 50.7877 133.724 49.0273C135.896 46.2747 139.63 44.8984 144.922 44.8984C148.368 44.8984 151.424 45.5759 154.102 46.9362C156.775 48.2965 158.114 50.8677 158.114 54.6392V69.0103C158.114 70.0079 158.13 71.2135 158.172 72.6325C158.231 73.7154 158.397 74.4462 158.663 74.8356C158.935 75.2197 159.341 75.5398 159.88 75.7905V76.9801H150.95C150.699 76.3559 150.528 75.7691 150.432 75.2197C150.336 74.6702 150.261 74.0461 150.203 73.342C149.066 74.5742 147.76 75.6198 146.277 76.484C144.505 77.5029 142.505 78.0096 140.275 78.0096C137.427 78.0096 135.074 77.1988 133.218 75.5718C131.361 73.9501 130.433 71.6456 130.433 68.6689C130.433 64.8068 131.927 62.0115 134.919 60.2831C136.557 59.3442 138.968 58.6721 142.153 58.2667L144.954 57.9306ZM149.957 61.7554C149.435 62.0862 148.901 62.3476 148.368 62.5503C147.834 62.753 147.098 62.9397 146.17 63.1157L144.308 63.4625C142.558 63.7719 141.305 64.1453 140.542 64.5881C139.251 65.3402 138.606 66.5031 138.606 68.0875C138.606 69.4958 139 70.5093 139.79 71.1388C140.579 71.7629 141.534 72.0777 142.665 72.0777C144.457 72.0777 146.106 71.5602 147.616 70.5147C149.125 69.4745 149.909 67.5754 149.963 64.8228V61.7554H149.957Z" fill="#FB9426"/>
<path d="M190.58 47.4479C192.634 49.1442 193.663 51.9609 193.663 55.887V76.985H185.277V57.9355C185.277 56.2871 185.059 55.0229 184.616 54.1427C183.816 52.5316 182.285 51.7315 180.034 51.7315C177.265 51.7315 175.366 52.9104 174.331 55.2629C173.798 56.5058 173.531 58.1009 173.531 60.0319V76.9796H165.353V45.6768H173.269V50.2858C174.32 48.6748 175.313 47.5119 176.251 46.8024C177.932 45.5381 180.066 44.9033 182.647 44.9033C185.88 44.9033 188.521 45.7515 190.58 47.4479Z" fill="#FB9426"/>
<path d="M216.787 45.6181C218.777 46.4397 220.388 47.9493 221.609 50.1418V45.6235H229.633V75.3366C229.633 79.3801 228.95 82.4262 227.589 84.4746C225.248 88.0007 220.756 89.7611 214.109 89.7611C210.098 89.7611 206.822 88.9716 204.288 87.3979C201.755 85.8242 200.352 83.4717 200.085 80.3404H208.988C209.217 81.3059 209.596 81.9994 210.114 82.4208C210.999 83.173 212.488 83.5464 214.584 83.5464C217.545 83.5464 219.529 82.5648 220.527 80.6071C221.177 79.3481 221.508 77.241 221.508 74.2697V72.2853C220.724 73.6189 219.876 74.6218 218.974 75.2833C217.342 76.5209 215.224 77.1397 212.616 77.1397C208.588 77.1397 205.371 75.726 202.965 72.8987C200.56 70.0715 199.354 66.2413 199.354 61.4082C199.354 56.7512 200.512 52.8357 202.827 49.6617C205.142 46.4877 208.428 44.9033 212.674 44.9033C214.248 44.9033 215.619 45.1434 216.787 45.6181ZM219.534 68.135C220.847 66.6841 221.508 64.3689 221.508 61.1949C221.508 58.2129 220.884 55.9457 219.636 54.3827C218.387 52.825 216.718 52.0462 214.621 52.0462C211.762 52.0462 209.788 53.4012 208.705 56.1164C208.135 57.5621 207.847 59.3385 207.847 61.4563C207.847 63.286 208.151 64.913 208.759 66.332C209.863 68.9886 211.847 70.3168 214.701 70.3168C216.611 70.3115 218.222 69.586 219.534 68.135Z" fill="#FB9426"/>
<path d="M263.394 73.1254C260.748 76.3901 256.732 78.0171 251.349 78.0171C245.961 78.0171 241.944 76.3848 239.298 73.1254C236.653 69.866 235.33 65.9345 235.33 61.3468C235.33 56.8338 236.653 52.9183 239.298 49.6109C241.944 46.2982 245.961 44.6445 251.349 44.6445C256.737 44.6445 260.754 46.2982 263.394 49.6109C266.04 52.9237 267.363 56.8338 267.363 61.3468C267.363 65.9345 266.04 69.866 263.394 73.1254ZM256.844 68.6337C258.129 66.932 258.775 64.5102 258.775 61.3682C258.775 58.2315 258.129 55.815 256.844 54.1186C255.558 52.4222 253.712 51.5794 251.312 51.5794C248.911 51.5794 247.06 52.4276 245.764 54.1186C244.468 55.815 243.817 58.2315 243.817 61.3682C243.817 64.5102 244.462 66.932 245.764 68.6337C247.06 70.3354 248.911 71.189 251.312 71.189C253.712 71.189 255.553 70.3354 256.844 68.6337Z" fill="#FB9426"/>
</svg>
